<svg width="520" height="420" viewBox="0 0 520 420" fill="none" xmlns="http://www.w3.org/2000/svg">
  <rect width="520" height="420" rx="36" fill="#0B1630" />
  <circle cx="260" cy="210" r="140" stroke="#7FD6FF" stroke-opacity="0.5" stroke-width="2" />
  <circle cx="260" cy="210" r="95" stroke="#4F8EF7" stroke-opacity="0.7" stroke-width="1.5" />
  <circle cx="260" cy="210" r="60" stroke="#7FD6FF" stroke-opacity="0.6" stroke-width="1" />
  <g fill="#7FD6FF" fill-opacity="0.8">
    <circle cx="260" cy="70" r="4" />
    <circle cx="180" cy="120" r="3" />
    <circle cx="340" cy="120" r="3" />
    <circle cx="130" cy="210" r="4" />
    <circle cx="390" cy="210" r="4" />
    <circle cx="180" cy="300" r="3" />
    <circle cx="340" cy="300" r="3" />
    <circle cx="260" cy="350" r="4" />
  </g>
  <path d="M180 120L260 70L340 120" stroke="#7FD6FF" stroke-opacity="0.6" stroke-width="1" />
  <path d="M130 210L260 70L390 210" stroke="#4F8EF7" stroke-opacity="0.5" stroke-width="1" />
  <path d="M130 210L260 350L390 210" stroke="#7FD6FF" stroke-opacity="0.6" stroke-width="1" />
  <path d="M180 300L260 350L340 300" stroke="#4F8EF7" stroke-opacity="0.5" stroke-width="1" />
</svg>
